<svg id="visual" viewBox="0 0 600 900" width="600" height="900" xmlns="http://www.w3.org/2000/svg" xmlns:xlink="http://www.w3.org/1999/xlink" version="1.1"><rect x="0" y="0" width="600" height="900" fill="#36AE7C"></rect><defs><linearGradient id="grad1_0" x1="0%" y1="0%" x2="100%" y2="100%"><stop offset="30%" stop-color="#effffd" stop-opacity="1"></stop><stop offset="70%" stop-color="#effffd" stop-opacity="1"></stop></linearGradient></defs><defs><linearGradient id="grad1_1" x1="0%" y1="0%" x2="100%" y2="100%"><stop offset="30%" stop-color="#effffd" stop-opacity="1"></stop><stop offset="70%" stop-color="#c8f0e8" stop-opacity="1"></stop></linearGradient></defs><defs><linearGradient id="grad1_2" x1="0%" y1="0%" x2="100%" y2="100%"><stop offset="30%" stop-color="#a3e0d1" stop-opacity="1"></stop><stop offset="70%" stop-color="#c8f0e8" stop-opacity="1"></stop></linearGradient></defs><defs><linearGradient id="grad1_3" x1="0%" y1="0%" x2="100%" y2="100%"><stop offset="30%" stop-color="#a3e0d1" stop-opacity="1"></stop><stop offset="70%" stop-color="#7ed0b7" stop-opacity="1"></stop></linearGradient></defs><defs><linearGradient id="grad1_4" x1="0%" y1="0%" x2="100%" y2="100%"><stop offset="30%" stop-color="#5bbf9a" stop-opacity="1"></stop><stop offset="70%" stop-color="#7ed0b7" stop-opacity="1"></stop></linearGradient></defs><defs><linearGradient id="grad1_5" x1="0%" y1="0%" x2="100%" y2="100%"><stop offset="30%" stop-color="#5bbf9a" stop-opacity="1"></stop><stop offset="70%" stop-color="#36ae7c" stop-opacity="1"></stop></linearGradient></defs><defs><linearGradient id="grad2_0" x1="0%" y1="0%" x2="100%" y2="100%"><stop offset="30%" stop-color="#effffd" stop-opacity="1"></stop><stop offset="70%" stop-color="#effffd" stop-opacity="1"></stop></linearGradient></defs><defs><linearGradient id="grad2_1" x1="0%" y1="0%" x2="100%" y2="100%"><stop offset="30%" stop-color="#c8f0e8" stop-opacity="1"></stop><stop offset="70%" stop-color="#effffd" stop-opacity="1"></stop></linearGradient></defs><defs><linearGradient id="grad2_2" x1="0%" y1="0%" x2="100%" y2="100%"><stop offset="30%" stop-color="#c8f0e8" stop-opacity="1"></stop><stop offset="70%" stop-color="#a3e0d1" stop-opacity="1"></stop></linearGradient></defs><defs><linearGradient id="grad2_3" x1="0%" y1="0%" x2="100%" y2="100%"><stop offset="30%" stop-color="#7ed0b7" stop-opacity="1"></stop><stop offset="70%" stop-color="#a3e0d1" stop-opacity="1"></stop></linearGradient></defs><defs><linearGradient id="grad2_4" x1="0%" y1="0%" x2="100%" y2="100%"><stop offset="30%" stop-color="#7ed0b7" stop-opacity="1"></stop><stop offset="70%" stop-color="#5bbf9a" stop-opacity="1"></stop></linearGradient></defs><defs><linearGradient id="grad2_5" x1="0%" y1="0%" x2="100%" y2="100%"><stop offset="30%" stop-color="#36ae7c" stop-opacity="1"></stop><stop offset="70%" stop-color="#5bbf9a" stop-opacity="1"></stop></linearGradient></defs><g transform="translate(600, 0)"><path d="M0 486.7C-69.8 448.3 -139.6 409.9 -216 374.1C-292.4 338.4 -375.3 305.3 -421.5 243.4C-467.8 181.5 -477.3 90.7 -486.7 0L0 0Z" fill="#49b78b"></path><path d="M0 405.6C-58.2 373.6 -116.4 341.6 -180 311.8C-243.6 282 -312.8 254.4 -351.3 202.8C-389.8 151.2 -397.7 75.6 -405.6 0L0 0Z" fill="#6cc7a9"></path><path d="M0 324.5C-46.5 298.9 -93.1 273.3 -144 249.4C-194.9 225.6 -250.2 203.5 -281 162.2C-311.8 121 -318.2 60.5 -324.5 0L0 0Z" fill="#90d8c4"></path><path d="M0 243.4C-34.9 224.2 -69.8 204.9 -108 187.1C-146.2 169.2 -187.7 152.6 -210.8 121.7C-233.9 90.7 -238.6 45.4 -243.4 0L0 0Z" fill="#b5e8dd"></path><path d="M0 162.2C-23.3 149.4 -46.5 136.6 -72 124.7C-97.5 112.8 -125.1 101.8 -140.5 81.1C-155.9 60.5 -159.1 30.2 -162.2 0L0 0Z" fill="#dcf7f3"></path><path d="M0 81.1C-11.6 74.7 -23.3 68.3 -36 62.4C-48.7 56.4 -62.6 50.9 -70.3 40.6C-78 30.2 -79.5 15.1 -81.1 0L0 0Z" fill="#effffd"></path></g><g transform="translate(0, 900)"><path d="M0 -486.7C85.1 -474 170.2 -461.2 243.4 -421.5C316.6 -381.9 378 -315.2 416.6 -240.5C455.1 -165.8 470.9 -82.9 486.7 0L0 0Z" fill="#49b78b"></path><path d="M0 -405.6C70.9 -395 141.8 -384.4 202.8 -351.3C263.8 -318.2 315 -262.7 347.1 -200.4C379.3 -138.1 392.5 -69.1 405.6 0L0 0Z" fill="#6cc7a9"></path><path d="M0 -324.5C56.7 -316 113.4 -307.5 162.2 -281C211.1 -254.6 252 -210.2 277.7 -160.3C303.4 -110.5 314 -55.3 324.5 0L0 0Z" fill="#90d8c4"></path><path d="M0 -243.4C42.5 -237 85.1 -230.6 121.7 -210.8C158.3 -190.9 189 -157.6 208.3 -120.3C227.6 -82.9 235.5 -41.4 243.4 0L0 0Z" fill="#b5e8dd"></path><path d="M0 -162.2C28.4 -158 56.7 -153.7 81.1 -140.5C105.5 -127.3 126 -105.1 138.9 -80.2C151.7 -55.3 157 -27.6 162.2 0L0 0Z" fill="#dcf7f3"></path><path d="M0 -81.1C14.2 -79 28.4 -76.9 40.6 -70.3C52.8 -63.6 63 -52.5 69.4 -40.1C75.9 -27.6 78.5 -13.8 81.1 0L0 0Z" fill="#effffd"></path></g></svg>